# xmcd
#
# Track frame offsets:
#	150
#	12109
#	24297
#	34177
#	44717
#	56680
#	69217
#	80425
#	91830
#	103882
#	115562
#	125565
#	139090
#	148975
#
# Disc length: 2161 seconds
#
# Revision: 0
# Processed by: cddbd v1.4PL0 Copyright (c) Steve Scherf et al.
# Submitted via: dBpowerAMP V4.0
#
DISCID=bc086f0e
DTITLE=Mary Rice Hopkins - 15 Singable Songs
DYEAR=1997
DGENRE=Gospel
TTITLE0=Walk Like Jesus
TTITLE1=Hip Hip Hooray (Hippopotamus)
TTITLE2=Superman
TTITLE3=Gramma's House
TTITLE4=Jammin' To Bed
TTITLE5=Splish Splash
TTITLE6=God Did
TTITLE7=Sharing Comes ' Round Again
TTITLE8=Little Is Much
TTITLE9=Matilda The Gorilla
TTITLE10=Big Steps For Little Feet
TTITLE11=Running For The Prize
TTITLE12=It Is Good
TTITLE13=Create In Me/Children of The King
EXTD=Uploaded by Sean Huang
EXTT0=
EXTT1=
EXTT2=
EXTT3=
EXTT4=
EXTT5=
EXTT6=
EXTT7=
EXTT8=
EXTT9=
EXTT10=
EXTT11=
EXTT12=
EXTT13=
PLAYORDER=
